<svg width="60" height="59" viewBox="0 0 60 59" fill="none" xmlns="http://www.w3.org/2000/svg">
<path d="M29.9278 0.117188C13.8556 0.117188 0.705566 13.2907 0.705566 29.5155C0.705566 44.1853 11.4009 56.3613 25.3691 58.5618V38.024H17.9467V29.5155H25.3691V23.0315C25.3691 15.6672 29.7233 11.6183 36.4152 11.6183C39.6004 11.6183 42.9317 12.1758 42.9317 12.1758V19.4227H39.2497C35.6262 19.4227 34.4865 21.6818 34.4865 23.9997V29.5155H42.6103L41.2953 38.024H34.4865V58.5618C41.3725 57.4699 47.6429 53.9423 52.1657 48.6158C56.6885 43.2893 59.1657 36.5149 59.1501 29.5155C59.1501 13.2907 46 0.117188 29.9278 0.117188Z" fill="#CACACA"/>
</svg>
