<svg width="60" height="59" viewBox="0 0 60 59" fill="none" xmlns="http://www.w3.org/2000/svg">
<g clip-path="url(#clip0)">
<path d="M24.4817 29.2223C24.4817 32.3115 26.9858 34.8156 30.075 34.8156C33.1642 34.8156 35.6683 32.3115 35.6683 29.2223C35.6683 26.1331 33.1642 23.629 30.075 23.629C26.9858 23.629 24.4817 26.1331 24.4817 29.2223Z" fill="#CACACA"/>
<path d="M16.994 19.3259C17.2629 18.5974 17.6919 17.9379 18.2492 17.3966C18.7906 16.8392 19.4496 16.4102 20.1786 16.1414C20.7699 15.9117 21.6581 15.6384 23.2941 15.5639C25.0639 15.4832 25.5945 15.4658 30.0749 15.4658C34.5557 15.4658 35.0863 15.4828 36.8556 15.5635C38.4916 15.6384 39.3803 15.9117 39.9711 16.1414C40.7001 16.4102 41.3596 16.8392 41.9005 17.3966C42.4579 17.9379 42.8868 18.5969 43.1561 19.3259C43.3858 19.9172 43.6591 20.8059 43.7336 22.4419C43.8143 24.2112 43.8317 24.7418 43.8317 29.2226C43.8317 33.703 43.8143 34.2336 43.7336 36.0034C43.6591 37.6394 43.3858 38.5276 43.1561 39.1189C42.8868 39.8479 42.4583 40.5069 41.9009 41.0483C41.3596 41.6056 40.7006 42.0346 39.9715 42.3035C39.3803 42.5335 38.4916 42.8069 36.8556 42.8813C35.0863 42.962 34.5561 42.979 30.0753 42.979C25.594 42.979 25.0634 42.962 23.2946 42.8813C21.6586 42.8069 20.7699 42.5335 20.1786 42.3035C18.7152 41.739 17.5585 40.5823 16.994 39.1189C16.7644 38.5276 16.4911 37.6394 16.4162 36.0034C16.3354 34.2336 16.3185 33.703 16.3185 29.2226C16.3185 24.7418 16.3354 24.2112 16.4162 22.4419C16.4906 20.8059 16.764 19.9172 16.994 19.3259ZM30.0749 37.8387C34.8339 37.8387 38.6918 33.9812 38.6918 29.2222C38.6918 24.4631 34.8339 20.6057 30.0749 20.6057C25.3163 20.6057 21.4584 24.4631 21.4584 29.2222C21.4584 33.9812 25.3163 37.8387 30.0749 37.8387ZM21.1177 22.2787C22.2298 22.2787 23.1314 21.3771 23.1314 20.265C23.1314 19.1529 22.2298 18.2513 21.1177 18.2513C20.0056 18.2513 19.104 19.1529 19.104 20.265C19.1045 21.3771 20.0056 22.2787 21.1177 22.2787Z" fill="#CACACA"/>
<path d="M30.075 0C46.2115 0 59.2972 13.0857 59.2972 29.2223C59.2972 45.3588 46.2115 58.4446 30.075 58.4446C13.9384 58.4446 0.852673 45.3588 0.852673 29.2223C0.852673 13.0857 13.9384 0 30.075 0ZM13.3962 36.1404C13.4773 37.9266 13.7614 39.1462 14.1761 40.2136C15.0478 42.4676 16.8296 44.2494 19.0836 45.1212C20.1506 45.5359 21.3706 45.8195 23.1564 45.9011C24.9458 45.9826 25.5174 46.0023 30.0745 46.0023C34.632 46.0023 35.2032 45.9826 36.993 45.9011C38.7789 45.8195 39.9988 45.5359 41.0659 45.1212C42.186 44.6998 43.1999 44.0394 44.0382 43.1855C44.8917 42.3477 45.552 41.3333 45.9734 40.2136C46.3881 39.1466 46.6721 37.9266 46.7533 36.1408C46.8358 34.351 46.8549 33.7794 46.8549 29.2223C46.8549 24.6652 46.8358 24.0936 46.7537 22.3042C46.6726 20.5179 46.389 19.2984 45.9743 18.2309C45.5529 17.1113 44.8921 16.0969 44.0382 15.259C43.2004 14.4051 42.186 13.7448 41.0663 13.3234C39.9988 12.9087 38.7793 12.6251 36.993 12.5435C35.2037 12.4619 34.632 12.4423 30.075 12.4423C25.5179 12.4423 24.9463 12.4619 23.1569 12.544C21.3706 12.6251 20.1511 12.9087 19.0836 13.3229C17.964 13.7443 16.9495 14.4051 16.1113 15.259C15.2578 16.0973 14.597 17.1113 14.1761 18.2309C13.7609 19.2984 13.4773 20.5179 13.3957 22.3042C13.3141 24.0936 13.295 24.6652 13.295 29.2223C13.295 33.7794 13.3141 34.351 13.3962 36.1404Z" fill="#CACACA"/>
</g>
<defs>
<clipPath id="clip0">
<rect width="58.4446" height="58.4446" fill="white" transform="matrix(-1 0 0 1 59.2972 0)"/>
</clipPath>
</defs>
</svg>
