<svg width="59" height="59" viewBox="0 0 59 59" fill="none" xmlns="http://www.w3.org/2000/svg">
<path d="M29.2223 0C13.0838 0 0 13.0832 0 29.2223C0 45.3614 13.0838 58.4446 29.2223 58.4446C45.3608 58.4446 58.4446 45.3614 58.4446 29.2223C58.4446 13.0832 45.3608 0 29.2223 0ZM44.0454 32.3828C45.4074 33.7131 46.8483 34.9651 48.071 36.4329C48.6127 37.0823 49.1233 37.7537 49.512 38.5088C50.0668 39.5857 49.5658 40.7665 48.602 40.8305L42.6152 40.8293C41.069 40.9572 39.8386 40.3336 38.8012 39.2765C37.9731 38.4341 37.2048 37.5343 36.4072 36.6631C36.0814 36.3056 35.7382 35.969 35.3292 35.7041C34.5131 35.1732 33.804 35.3358 33.3364 36.1884C32.8599 37.056 32.7511 38.0174 32.7056 38.983C32.6405 40.3946 32.2148 40.7635 30.7983 40.8299C27.7718 40.9716 24.9001 40.5124 22.2311 38.9866C19.8765 37.6407 18.0541 35.7412 16.4661 33.5905C13.3738 29.3981 11.0055 24.7966 8.8776 20.0631C8.39868 18.997 8.74905 18.4266 9.92511 18.4045C11.879 18.3668 13.833 18.3716 15.7869 18.4027C16.5821 18.4153 17.1083 18.8703 17.4138 19.6206C18.4697 22.2185 19.7641 24.6902 21.3862 26.9826C21.8185 27.593 22.2598 28.2017 22.8881 28.6328C23.5817 29.1087 24.1103 28.9514 24.4373 28.1772C24.6466 27.6851 24.7369 27.1589 24.7823 26.6316C24.9377 24.8253 24.9563 23.0197 24.6872 21.2206C24.5198 20.0948 23.8866 19.3677 22.7644 19.1549C22.1928 19.0467 22.2765 18.835 22.5545 18.5085C23.037 17.9441 23.489 17.595 24.3925 17.595L31.1565 17.5938C32.2225 17.803 32.4617 18.2813 32.6064 19.3552L32.6124 26.8719C32.5998 27.2875 32.821 28.5192 33.5672 28.7912C34.1651 28.9885 34.5597 28.509 34.9173 28.1305C36.5394 26.4092 37.6951 24.3775 38.7301 22.2747C39.1869 21.3474 39.5809 20.3877 39.9635 19.4263C40.2481 18.7154 40.6906 18.3656 41.493 18.3776L48.0065 18.3854C48.1984 18.3854 48.3933 18.3872 48.5834 18.4201C49.6812 18.6078 49.9819 19.0801 49.6423 20.151C49.1078 21.8335 48.0692 23.2349 47.054 24.64C45.9658 26.1443 44.8053 27.596 43.7279 29.1069C42.7378 30.488 42.8161 31.1834 44.0454 32.3828Z" fill="#CACACA"/>
</svg>
